# xmcd
#
# Track frame offsets:
#	150
#	8050
#	18457
#	26308
#	36337
#	46877
#	57751
#	70543
#	79628
#	91982
#	102974
#	110566
#	121771
#
# Disc length: 1778 seconds
# Revision: 1
# Processed by: cddbd v1.5.2PL0 Copyright (c) Steve Scherf et al.
# Submitted via: dBpowerAMP V12.0
#
DISCID=9206f00d
DTITLE=Johnny Cash - Johnny Cash Sings Hank Williams
DYEAR=1960
DGENRE=Country
TTITLE0=I Can't Help It
TTITLE1=You Win Again
TTITLE2=Hey Good Lookin'
TTITLE3=I Could Never Be Ashamed Of You
TTITLE4=Cold Cold Heart
TTITLE5=(I Heard That) Lonesome Whistle
TTITLE6=Folsom Prison Blues
TTITLE7=I Couldn't Keep From Crying
TTITLE8=I Walk The Line
TTITLE9=I Love You Because
TTITLE10=Come In Stranger
TTITLE11=Mean Eyed Cat
TTITLE12=The Little Drummer Boy (1959 Bonus Track)
EXTD=
EXTT0=
EXTT1=
EXTT2=
EXTT3=
EXTT4=
EXTT5=
EXTT6=
EXTT7=
EXTT8=
EXTT9=
EXTT10=
EXTT11=
EXTT12=
PLAYORDER=
